<svg height="512pt" viewBox="0 -44 512 512" width="512pt" xmlns="http://www.w3.org/2000/svg"><path d="m277.984375 155.492188-21.5 75.992187 21.5 77.855469 43.851563 19.359375 22.140624-86.714844-9.539062-107.234375-.8125.242188zm0 0" fill="#1e3c60"/><path d="m74.996094 21h63.996094v63.996094h-63.996094zm0 0" fill="#6a7f9e"/><path d="m435.972656 81.996094h-63.996094v-57.996094h63.996094zm0 0" fill="#6a7f9e"/><path d="m118.386719 28.109375h20.605469v51.164063h-20.605469zm0 0" fill="#49576b"/><path d="m415.371094 28.28125h20.601562v51.164062h-20.601562zm0 0" fill="#49576b"/><path d="m256.984375 135.992188h-3c-5.523437 0-10 4.476562-10 10v173.988281c0 5.523437 4.476563 10 10 10h3c5.523437 0 10-4.476563 10-10v-173.988281c0-5.523438-4.476563-10-10-10zm0 0" fill="#1e3c60"/><path d="m232.984375 155.652344 22.5 76.890625-22.5 76.957031-43.234375 19.359375-15.761719-87.875 3.261719-106.070313.453125.238282zm0 0" fill="#1e3c60"/><path d="m193.488281 383.976562-108.492187 21-63.496094-21 18.488281-285.59375c.847657-13.15625 11.757813-23.386718 24.9375-23.386718h85.136719c13.175781 0 24.085938 10.230468 24.9375 23.386718zm0 0" fill="#2c91ff"/><path d="m490.46875 383.976562-80.496094 16-91.492187-16 18.488281-285.59375c.851562-13.15625 11.757812-23.386718 24.9375-23.386718h85.136719c13.179687 0 24.085937 10.230468 24.9375 23.386718zm0 0" fill="#2c91ff"/><path d="m153.992188 20c0 5.519531-4.480469 10-10 10h-73.996094c-5.523438 0-10-4.480469-10-10v-10c0-5.523438 4.476562-10 10-10h73.996094c5.519531 0 10 4.476562 10 10zm0 0" fill="#b3ddff"/><path d="m450.972656 10c0-5.523438-4.476562-10-10-10h-73.996094c-5.523437 0-10 4.476562-10 10v10c0 5.519531 4.476563 10 10 10h73.996094c5.523438 0 10-4.480469 10-10zm0 0" fill="#b3ddff"/><path d="m232.984375 155.667969h45v153.75h-45zm0 0" fill="#6a7f9e"/><g fill="#1e3c60"><path d="m224.984375 186.988281h65.996094v15h-65.996094zm0 0"/><path d="m229.984375 223.984375h52.996094v15h-52.996094zm0 0"/><path d="m231.984375 260.984375h49.996094v15h-49.996094zm0 0"/></g><path d="m490.449219 383.972656-9.480469 5.003906-11.121094-5.003906-18.492187-285.585937c-.84375-13.167969-11.753907-23.394531-24.9375-23.394531h20.601562c13.183594 0 24.09375 10.226562 24.9375 23.394531zm0 0" fill="#1c63f2"/><path d="m193.488281 383.972656-10.5 4.335938-10.101562-4.335938-18.492188-285.585937c-.84375-13.167969-11.753906-23.394531-24.9375-23.394531h20.601563c13.183594 0 24.09375 10.226562 24.941406 23.394531zm0 0" fill="#1c63f2"/><path d="m214.988281 413.972656c0 5.523438-4.476562 10-10 10h-194.988281c-5.523438 0-10-4.476562-10-10v-19.996094c0-5.523437 4.476562-10 10-10h194.988281c5.523438 0 10 4.476563 10 10zm0 0" fill="#b3ddff"/><path d="m511.96875 393.976562c0-5.523437-4.476562-10-10-10h-194.988281c-5.523438 0-10 4.476563-10 10v19.996094c0 5.523438 4.476562 10 10 10h194.988281c5.523438 0 10-4.476562 10-10zm0 0" fill="#b3ddff"/><path d="m214.988281 393.976562v19.996094c0 5.519532-4.480469 10-10.003906 10h-20.601563c5.519532 0 10.003907-4.480468 10.003907-10v-19.996094c0-3.996093-2.339844-7.4375-5.730469-9.042968-1.296875-.621094-2.75-.960938-4.273438-.960938h20.601563c5.519531 0 10.003906 4.484375 10.003906 10.003906zm0 0" fill="#82bfe0"/><path d="m512 393.945312v19.996094c0 5.519532-4.480469 10-10.003906 10h-20.601563c5.523438 0 10.003907-4.480468 10.003907-10v-19.996094c0-3.996093-2.339844-7.4375-5.730469-9.042968-1.296875-.621094-2.75-.960938-4.273438-.960938h20.601563c5.523437 0 10.003906 4.480469 10.003906 10.003906zm0 0" fill="#82bfe0"/></svg>