<?xml version="1.0" encoding="iso-8859-1"?>
<!-- Generator: Adobe Illustrator 19.0.0, SVG Export Plug-In . SVG Version: 6.00 Build 0)  -->
<svg version="1.1" id="Capa_1" xmlns="http://www.w3.org/2000/svg" xmlns:xlink="http://www.w3.org/1999/xlink" x="0px" y="0px"
	 viewBox="0 0 511.999 511.999" style="enable-background:new 0 0 511.999 511.999;" xml:space="preserve">
<path style="fill:#FCD2BE;" d="M177.641,310.486v96.983c0,44.446-36.046,80.491-80.504,80.491c-11.908,0-23.203-2.587-33.369-7.222
	v-0.013c-24.598-11.217-42.563-34.458-46.366-62.219c-3.573-1.255-6.927-3.303-9.795-6.171c-10.141-10.128-10.141-26.57,0-36.699
	c10.128-10.155,26.582-10.155,36.724,0l6.761-38.76l4.61-26.391h121.939V310.486z"/>
<path style="fill:#FAB998;" d="M63.767,480.726c-24.598-11.217-42.563-34.458-46.366-62.219c-3.573-1.255-6.927-3.303-9.795-6.171
	c-10.141-10.128-10.141-26.57,0-36.699c10.128-10.155,26.582-10.155,36.724,0l6.761-38.76l21.192,4.302
	C63.371,356.584,25.737,412.81,63.767,480.726z"/>
<path style="fill:#F9CE55;" d="M215.275,271.239c0,38.632-31.32,69.94-69.94,69.94H72.283v6.492
	c0,15.442-12.523,27.953-27.966,27.953c-7.478-7.478-18.4-9.437-27.671-5.878v-28.568c0-38.62,31.32-69.94,69.94-69.94H215.275z"/>
<path style="fill:#E2A11E;" d="M143.669,271.239H86.586c-38.62,0-69.94,31.32-69.94,69.94v28.568
	c9.271-3.559,20.193-1.6,27.671,5.878c15.442,0,27.966-12.51,27.966-27.953v-6.492h1.445
	C73.729,302.56,105.049,271.239,143.669,271.239z"/>
<g>
	<path style="fill:#50515B;" d="M108.939,396.588c-4.379,0-7.928-3.55-7.928-7.928v-13.314c0-4.379,3.55-7.928,7.928-7.928
		s7.928,3.55,7.928,7.928v13.314C116.867,393.038,113.318,396.588,108.939,396.588z"/>
	<path style="fill:#50515B;" d="M143.554,396.588c-4.379,0-7.928-3.55-7.928-7.928v-13.314c0-4.379,3.55-7.928,7.928-7.928
		s7.928,3.55,7.928,7.928v13.314C151.483,393.038,147.933,396.588,143.554,396.588z"/>
</g>
<path style="fill:#FFFFFF;" d="M112.605,456.727c-0.143,0-0.285-0.003-0.429-0.012c-17.848-0.952-31.477-8.797-39.412-22.684
	c-2.172-3.802-0.852-8.645,2.95-10.818c3.801-2.173,8.645-0.852,10.818,2.95c5.202,9.105,14.116,14.057,26.49,14.717
	c4.372,0.234,7.729,3.967,7.494,8.34C120.29,453.45,116.79,456.727,112.605,456.727z"/>
<path style="fill:#3FACC9;" d="M262.202,58.331H63.618c-12.591,0-22.799,10.208-22.799,22.799v100.277
	c0,12.591,10.208,22.799,22.799,22.799h111.976v41.226l36.769-41.226h49.839c12.591,0,22.799-10.208,22.799-22.799V81.13
	C285.001,68.539,274.794,58.331,262.202,58.331z"/>
<path style="fill:#00C7A9;" d="M265.063,7.591h198.584c12.591,0,22.799,10.208,22.799,22.799v100.277
	c0,12.591-10.208,22.799-22.799,22.799H351.67v41.226l-36.769-41.226h-49.839c-12.591,0-22.799-10.208-22.799-22.799V30.391
	C242.264,17.799,252.472,7.591,265.063,7.591z"/>
<g>
	<path style="fill:#393A42;" d="M445.22,55.688h-89.393c-4.38,0-7.928-3.55-7.928-7.928s3.549-7.928,7.928-7.928h89.393
		c4.38,0,7.928,3.55,7.928,7.928S449.6,55.688,445.22,55.688z"/>
	<path style="fill:#393A42;" d="M329.398,55.688H283.49c-4.38,0-7.928-3.55-7.928-7.928s3.549-7.928,7.928-7.928h45.909
		c4.38,0,7.928,3.55,7.928,7.928S333.777,55.688,329.398,55.688z"/>
	<path style="fill:#393A42;" d="M445.22,88.194h-27.554c-4.38,0-7.928-3.55-7.928-7.928s3.549-7.928,7.928-7.928h27.554
		c4.38,0,7.928,3.55,7.928,7.928S449.6,88.194,445.22,88.194z"/>
	<path style="fill:#393A42;" d="M391.237,88.194H283.49c-4.38,0-7.928-3.55-7.928-7.928s3.549-7.928,7.928-7.928h107.747
		c4.38,0,7.928,3.55,7.928,7.928S395.615,88.194,391.237,88.194z"/>
	<path style="fill:#393A42;" d="M395.994,120.698H283.49c-4.38,0-7.928-3.55-7.928-7.928c0-4.379,3.549-7.928,7.928-7.928h112.504
		c4.38,0,7.928,3.55,7.928,7.928C403.922,117.148,400.372,120.698,395.994,120.698z"/>
</g>
<g>
	<path style="fill:#50515B;" d="M125.384,103.257h-45.91c-4.379,0-7.928-3.55-7.928-7.928s3.55-7.928,7.928-7.928h45.909
		c4.379,0,7.928,3.55,7.928,7.928S129.762,103.257,125.384,103.257z"/>
	<path style="fill:#50515B;" d="M203.078,103.257h-45.909c-4.379,0-7.928-3.55-7.928-7.928s3.55-7.928,7.928-7.928h45.909
		c4.379,0,7.928,3.55,7.928,7.928S207.456,103.257,203.078,103.257z"/>
	<path style="fill:#50515B;" d="M218.406,135.761H79.474c-4.379,0-7.928-3.55-7.928-7.928c0-4.379,3.55-7.928,7.928-7.928h138.932
		c4.379,0,7.928,3.55,7.928,7.928C226.334,132.211,222.785,135.761,218.406,135.761z"/>
	<path style="fill:#50515B;" d="M191.978,168.266h-63.422c-4.379,0-7.928-3.55-7.928-7.928s3.55-7.928,7.928-7.928h63.422
		c4.379,0,7.928,3.55,7.928,7.928S196.357,168.266,191.978,168.266z"/>
	<path style="fill:#50515B;" d="M102.127,168.266H79.474c-4.379,0-7.928-3.55-7.928-7.928s3.55-7.928,7.928-7.928h22.652
		c4.379,0,7.928,3.55,7.928,7.928S106.506,168.266,102.127,168.266z"/>
</g>
<path style="fill:#6B4B3D;" d="M477.638,504.408c0,0-0.137-0.053-0.402-0.169c-4.25-1.913-41.217-19.842-41.217-66.662
	L314.186,317.224c-5.708-21.121-3.954-58.226,48.49-62.497c3.266-0.275,6.734-0.412,10.402-0.412
	c62.592,0,124.011,5.032,137.003,97.16C518.771,413.115,496.18,473.001,477.638,504.408z"/>
<path style="fill:#5B3D2D;" d="M477.638,504.408c0,0-0.137-0.053-0.402-0.169c0.011-0.021,0.011-0.042,0.011-0.063
	c21.142-179.71-60.256-249.449-114.571-249.449c3.266-0.275,6.734-0.412,10.402-0.412c62.592,0,124.011,5.032,137.003,97.16
	C518.771,413.115,496.18,473.001,477.638,504.408z"/>
<path style="fill:#B37854;" d="M471.011,384.389c-2.646,2.646-5.74,4.535-9.035,5.693c-4.158,30.353-26.656,54.848-55.958,61.958
	c-5.633,1.382-11.527,2.103-17.586,2.103c-41.006,0-74.252-33.246-74.252-74.24v-62.678c0,0,32.916,1.181,45.908-11.81
	c18.861,24.483,43.368,27.896,59.619,26.833c0-0.012,0-0.012,0-0.012c10.405-0.685,17.432-3.201,17.432-3.201v21.507l0.012-0.012
	c6.898-6.898,16.972-8.704,25.522-5.421c3.035,1.158,5.882,2.976,8.339,5.433C480.365,359.883,480.365,375.047,471.011,384.389z"/>
<path style="fill:#946032;" d="M471.011,384.389c-2.646,2.646-5.74,4.535-9.035,5.693c-4.158,30.353-26.656,54.848-55.958,61.958
	c38.561-21.153,14.02-118.482,13.689-119.794c0-0.012,0-0.012,0-0.012c10.405-0.685,17.432-3.201,17.432-3.201v21.507l0.012-0.012
	c6.898-6.898,16.972-8.704,25.522-5.421c3.035,1.158,5.882,2.976,8.339,5.433C480.365,359.883,480.365,375.047,471.011,384.389z"/>
<g>
	<path style="fill:#50515B;" d="M377.553,370.48c-4.38,0-7.928-3.55-7.928-7.928v-12.281c0-4.379,3.549-7.928,7.928-7.928
		s7.928,3.55,7.928,7.928v12.281C385.482,366.931,381.932,370.48,377.553,370.48z"/>
	<path style="fill:#50515B;" d="M345.625,370.48c-4.38,0-7.928-3.55-7.928-7.928v-12.281c0-4.379,3.549-7.928,7.928-7.928
		c4.38,0,7.928,3.55,7.928,7.928v12.281C353.553,366.931,350.005,370.48,345.625,370.48z"/>
</g>
<path style="fill:#FFFFFF;" d="M374.17,425.95c-4.185,0-7.684-3.277-7.909-7.506c-0.234-4.372,3.122-8.106,7.494-8.34
	c11.192-0.597,19.243-5.06,23.931-13.265c2.172-3.801,7.016-5.122,10.816-2.95c3.802,2.172,5.123,7.015,2.95,10.818
	c-7.427,12.998-20.171,20.341-36.851,21.231C374.457,425.945,374.313,425.95,374.17,425.95z"/>
<g>
</g>
<g>
</g>
<g>
</g>
<g>
</g>
<g>
</g>
<g>
</g>
<g>
</g>
<g>
</g>
<g>
</g>
<g>
</g>
<g>
</g>
<g>
</g>
<g>
</g>
<g>
</g>
<g>
</g>
</svg>
