<svg height="512pt" viewBox="0 0 512 512" width="512pt" xmlns="http://www.w3.org/2000/svg"><path d="m512 256c0 141.386719-114.613281 256-256 256-32.257812 0-63.113281-5.964844-91.542969-16.855469-38.148437-14.605469-71.910156-38.085937-98.765625-67.917969-40.84375-45.347656-65.691406-105.398437-65.691406-171.226562 0-141.386719 114.613281-256 256-256s256 114.613281 256 256zm0 0" fill="#71cc8a"/><g fill="#3eaf85"><path d="m237.945312 454.25c0 19.726562-31.253906 36.277344-73.488281 40.894531-38.148437-14.605469-71.910156-38.085937-98.765625-67.917969 17.867188-9.265624 44.765625-15.160156 74.828125-15.160156 53.800781 0 97.425781 18.878906 97.425781 42.183594zm0 0"/><path d="m447.777344 217.863281c0-16.222656-30.375-29.375-67.839844-29.375-37.46875 0-67.839844 13.152344-67.839844 29.375 0 16.222657 30.371094 29.375 67.839844 29.375 37.464844 0 67.839844-13.152343 67.839844-29.375zm0 0"/><path d="m359.0625 225.40625c-3.949219 0-7.203125-3.144531-7.308594-7.117188-.109375-4.039062 3.078125-7.398437 7.117188-7.507812 7.664062-.203125 14.949218-.230469 21.066406-.230469 4.039062 0 7.3125 3.273438 7.3125 7.3125 0 4.039063-3.273438 7.316407-7.3125 7.316407-6.019531 0-13.183594.027343-20.675781.226562-.066407 0-.132813 0-.199219 0zm0 0"/><path d="m215.695312 461.570312c-1.289062 0-1.96875-.007812-1.96875-.007812h-11.644531c-4.039062 0-7.3125-3.273438-7.3125-7.3125 0-4.042969 3.273438-7.316406 7.3125-7.316406h11.722657c.105468 0 .726562.007812 1.890624.007812 3.527344 0 13.164063-.066406 26.488282-.675781 4.03125-.183594 7.457031 2.9375 7.640625 6.972656.183593 4.035157-2.9375 7.457031-6.972657 7.640625-13.625.625-23.53125.691406-27.15625.691406zm67.136719-3.640624c-3.707031 0-6.886719-2.808594-7.269531-6.574219-.410156-4.019531 2.515625-7.609375 6.535156-8.019531 13.761719-1.398438 27.074219-3.179688 39.574219-5.296876 3.980469-.675781 7.757813 2.007813 8.433594 5.992188.671875 3.980469-2.007813 7.757812-5.992188 8.429688-12.816406 2.171874-26.453125 3.996093-40.535156 5.429687-.25.027344-.5.039063-.746094.039063zm79.558594-13.804688c-3.238281 0-6.195313-2.164062-7.066406-5.441406-1.035157-3.902344 1.289062-7.910156 5.195312-8.945313 13.789063-3.65625 26.3125-7.886719 37.226563-12.566406 3.714844-1.59375 8.011718.125 9.605468 3.839844 1.589844 3.710937-.128906 8.011719-3.839843 9.601562-11.5625 4.960938-24.765625 9.421875-39.242188 13.265625-.625.167969-1.257812.246094-1.878906.246094zm73.023437-33.109375c-2.132812 0-4.25-.929687-5.695312-2.71875-2.539062-3.144531-2.046875-7.75 1.097656-10.285156 10.554688-8.519531 17.828125-18.109375 21.621094-28.503907 1.386719-3.792968 5.585938-5.746093 9.378906-4.363281 3.796875 1.386719 5.75 5.585938 4.363282 9.378907-4.714844 12.929687-13.523438 24.660156-26.175782 34.871093-1.351562 1.089844-2.976562 1.621094-4.589844 1.621094zm22.945313-70.417969c-2.453125 0-4.84375-1.230468-6.230469-3.46875-4.632812-7.492187-14.191406-13.179687-29.21875-17.386718-3.886718-1.089844-6.15625-5.125-5.070312-9.015626 1.089844-3.890624 5.128906-6.160156 9.019531-5.070312 18.722656 5.242188 31.058594 13.023438 37.710937 23.777344 2.125 3.4375 1.0625 7.945312-2.371093 10.070312-1.199219.738282-2.527344 1.09375-3.839844 1.09375zm-73.199219-27.714844c-.292968 0-.589844-.019531-.890625-.054687-5.816406-.707031-11.847656-1.371094-17.683593-2.007813-7.425782-.816406-15.105469-1.660156-22.523438-2.617187-4.003906-.515625-6.835938-4.183594-6.316406-8.1875.515625-4.007813 4.1875-6.835937 8.1875-6.320313 7.277344.9375 14.890625 1.773438 22.25 2.582032 5.875.644531 11.953125 1.3125 17.851562 2.027344 4.011719.488281 6.867188 4.136718 6.378906 8.144531-.453124 3.710937-3.609374 6.433593-7.253906 6.433593zm-79.746094-12.441406c-.726562 0-1.46875-.109375-2.203124-.339844-18.503907-5.839843-30.34375-14.46875-36.191407-26.375-1.78125-3.625-.28125-8.011718 3.34375-9.789062 3.625-1.78125 8.007813-.285156 9.789063 3.339844 3.988281 8.128906 12.972656 14.300781 27.460937 18.875 3.855469 1.214844 5.992188 5.324218 4.773438 9.175781-.984375 3.121094-3.863281 5.113281-6.972657 5.113281zm-24.242187-58.566406c-2.222656 0-4.417969-1.007812-5.855469-2.921875-2.421875-3.234375-1.773437-7.816406 1.460938-10.242187 9.128906-6.855469 22.53125-11.617188 40.96875-14.558594 3.988281-.632813 7.738281 2.085937 8.375 6.074218.636718 3.988282-2.082032 7.738282-6.074219 8.375-15.804687 2.519532-27.40625 6.492188-34.488281 11.804688-1.316406.992188-2.855469 1.46875-4.386719 1.46875zm0 0"/><path d="m161.40625 461.5625h-20.890625c-4.042969 0-7.316406-3.273438-7.316406-7.3125 0-4.042969 3.273437-7.316406 7.316406-7.316406h20.890625c4.039062 0 7.316406 3.273437 7.316406 7.316406 0 4.039062-3.277344 7.3125-7.316406 7.3125zm0 0"/></g><path d="m254.539062 239.875c-22.667968-126.761719-205.382812-126.761719-228.050781 0-2.019531 11.28125-3.070312 22.902344-3.070312 34.765625 0 80.214844 48.136719 149.179687 117.097656 179.605469 68.957031-30.425782 117.09375-99.390625 117.09375-179.605469 0-11.863281-1.050781-23.484375-3.070313-34.765625zm0 0" fill="#ff616d"/><path d="m140.515625 454.25c-68.960937-30.433594-117.097656-99.390625-117.097656-179.609375 0-11.863281 1.054687-23.484375 3.074219-34.769531 11.195312-62.613282 61.429687-94.292969 112.140624-95.039063-39.425781.976563-91.246093 32.644531-99.957031 95.039063-1.566406 11.285156-2.394531 22.90625-2.394531 34.769531.003906 80.21875 50.433594 149.175781 104.234375 179.609375zm0 0" fill="#e53467"/><path d="m220.773438 261.128906c0 44.328125-35.933594 80.261719-80.257813 80.261719-44.328125 0-80.261719-35.933594-80.261719-80.261719 0-44.324218 35.933594-80.257812 80.261719-80.257812 44.324219 0 80.257813 35.933594 80.257813 80.257812zm0 0" fill="#e53467"/><path d="m203.566406 261.128906c0 32.378906-24.410156 59.066406-55.835937 62.640625-2.367188.273438-4.773438.417969-7.214844.417969-34.820313 0-63.058594-28.238281-63.058594-63.058594 0-34.824218 28.238281-63.050781 63.058594-63.050781 2.441406 0 4.847656.140625 7.214844.414063 31.425781 3.574218 55.835937 30.253906 55.835937 62.636718zm0 0" fill="#e5e5e5"/><path d="m203.566406 261.128906c0 32.378906-24.410156 59.066406-55.835937 62.640625-31.425781-3.574219-55.839844-30.261719-55.839844-62.640625 0-32.382812 24.414063-59.0625 55.839844-62.636718 31.425781 3.574218 55.835937 30.253906 55.835937 62.636718zm0 0" fill="#fcfcfc"/><path d="m459.332031 68.59375c-15.78125-88.265625-143.007812-88.265625-158.792969 0-1.40625 7.855469-2.136718 15.945312-2.136718 24.207031 0 55.855469 33.519531 103.875 81.535156 125.0625 48.015625-21.1875 81.535156-69.207031 81.535156-125.0625 0-8.261719-.734375-16.351562-2.140625-24.207031zm0 0" fill="#fce065"/><path d="m379.9375 217.863281c-48.015625-21.191406-81.535156-69.207031-81.535156-125.0625 0-8.261719.734375-16.351562 2.140625-24.207031 7.792969-43.601562 42.773437-65.660156 78.085937-66.179688-27.453125.683594-63.535156 22.730469-69.601562 66.179688-1.09375 7.855469-1.667969 15.945312-1.667969 24.207031 0 55.855469 35.117187 103.875 72.578125 125.0625zm0 0" fill="#f9a53f"/><path d="m435.820312 83.394531c0 30.863281-25.019531 55.886719-55.882812 55.886719-30.867188 0-55.886719-25.023438-55.886719-55.886719s25.019531-55.886719 55.886719-55.886719c30.863281 0 55.882812 25.023438 55.882812 55.886719zm0 0" fill="#f9a53f"/><path d="m423.839844 83.390625c0 22.546875-16.996094 41.132813-38.875 43.621094-1.648438.191406-3.324219.289062-5.027344.289062-24.246094 0-43.90625-19.660156-43.90625-43.910156 0-24.246094 19.660156-43.902344 43.90625-43.902344 1.703125 0 3.375.101563 5.027344.289063 21.878906 2.488281 38.875 21.066406 38.875 43.613281zm0 0" fill="#f2f2f2"/><path d="m423.839844 83.390625c0 22.546875-16.996094 41.132813-38.875 43.621094-21.882813-2.488281-38.882813-21.074219-38.882813-43.621094s17-41.125 38.882813-43.613281c21.878906 2.488281 38.875 21.066406 38.875 43.613281zm0 0" fill="#fff"/></svg>