<?xml version="1.0" encoding="iso-8859-1"?>
<!-- Generator: Adobe Illustrator 19.0.0, SVG Export Plug-In . SVG Version: 6.00 Build 0)  -->
<svg version="1.1" id="Capa_1" xmlns="http://www.w3.org/2000/svg" xmlns:xlink="http://www.w3.org/1999/xlink" x="0px" y="0px"
	 viewBox="0 0 512 512" style="enable-background:new 0 0 512 512;" xml:space="preserve">
<path style="fill:#FCD2BE;" d="M308.988,354.505c-2.557,3.486-7.463,4.238-10.95,1.681c-3.319-2.432-8.037-5.104-11.68-3.966
	c-4.05,1.253-8.121,7.234-11.461,16.816c-13.757,39.539-31.826,59.925-53.714,60.572c-0.334,0.01-0.678,0.021-1.012,0.021
	c-8.81,0-17.557-3.392-25.751-9.749c-11.492-8.904-21.91-23.621-29.947-42.932c-1.66-3.987,0.23-8.57,4.227-10.229
	c3.987-1.66,8.57,0.219,10.229,4.217c6.733,16.179,15.459,28.778,24.488,36.053c5.616,4.509,11.336,6.983,16.774,6.983
	c0.177,0,0.355,0,0.532-0.01c14.311-0.428,28.298-18.214,39.383-50.071c4.342-12.474,9.958-20.573,17.056-24.634l2.818-14.874
	c0.804-4.248,4.895-7.035,9.144-6.232c4.248,0.804,7.046,4.895,6.242,9.144l-1.816,9.593c4.436,1.002,9.029,3.215,13.747,6.68
	C310.783,346.113,311.545,351.019,308.988,354.505z"/>
<path style="fill:#D8254F;" d="M203.417,406.988l-8.998,12.891c-11.492-8.904-21.91-23.621-29.947-42.932
	c-1.66-3.987,0.23-8.57,4.227-10.229c3.987-1.66,8.57,0.219,10.229,4.217C185.662,387.114,194.388,399.713,203.417,406.988z"/>
<path style="fill:#EF4A6E;" d="M210.589,494.492c0,0-46.405,23.203-93.387,14.124c-17.58-3.383-35.243-11.294-50.583-26.634
	c0,0,14.702-98.481,42.251-156.036c3.661-7.646,7.55-14.569,11.668-20.445l17.134,1.325l34.629,2.685
	c0,4.816,0.614,14.244,1.879,26.538C178.464,378.094,190.24,453.806,210.589,494.492z"/>
<path style="fill:#D8254F;" d="M117.201,508.615c-17.58-3.383-35.243-11.294-50.583-26.634c0,0,18.868-126.403,53.918-176.481
	l17.134,1.325l4.961,4.901C129.808,338.059,99.779,439.96,117.201,508.615z"/>
<path style="fill:#FCD2BE;" d="M102.679,368.273c-0.23,0.052-23.11,5.125-45.573,13.914c-1.2,0.47-2.359,0.929-3.486,1.399
	c-34.174,13.987-37.963,25.156-37.963,29.404c0,9.791,12.557,17.505,25.845,25.667c9.655,5.929,19.634,12.056,26.043,20.01
	c8.257,10.25,9.227,21.732,2.86,34.112c-1.378,2.703-4.123,4.248-6.962,4.248c-1.211,0-2.432-0.271-3.57-0.866
	c-3.852-1.973-5.365-6.691-3.392-10.532c6.889-13.413-1.326-20.219-23.173-33.631C17.693,442.404,0,431.538,0,412.99
	c0-16.659,16.158-31.272,49.383-44.581c0.72-0.292,1.451-0.585,2.182-0.866c23.59-9.217,46.783-14.352,47.754-14.561
	c4.227-0.929,8.403,1.743,9.321,5.971C109.568,363.169,106.896,367.344,102.679,368.273z"/>
<path style="fill:#C7F3FF;" d="M384.408,234.432h57.907c38.486,0,69.685-31.199,69.685-69.685V70.961
	c0-38.486-31.199-69.685-69.685-69.685h-57.907c-38.486,0-69.685,31.199-69.685,69.685v93.786
	C314.724,203.233,345.923,234.432,384.408,234.432z"/>
<path style="fill:#FCD2BE;" d="M360.124,87.186l-0.174,46.286c0,28.754,23.32,52.073,52.082,52.073
	c7.704,0,15.011-1.673,21.588-4.672v-0.008c15.914-7.257,27.537-22.293,29.997-40.252c2.311-0.812,4.482-2.138,6.337-3.993
	c6.561-6.553,6.561-17.189,0-23.742c-6.553-6.57-17.198-6.57-23.759,0l-4.374-25.076l-2.982-17.074L360.124,87.186z"/>
<path style="fill:#FAB998;" d="M433.621,180.865c15.914-7.257,27.537-22.293,29.997-40.252c2.311-0.812,4.482-2.138,6.337-3.993
	c6.561-6.553,6.561-17.189,0-23.742c-6.553-6.57-17.198-6.57-23.759,0l-4.374-25.076l-13.71,2.784
	C433.877,100.55,458.224,136.926,433.621,180.865z"/>
<path style="fill:#50515B;" d="M463.829,87.851v21.116c-5.939-2.17-12.857-0.861-17.629,3.91v-12.601
	c-3.455,0-6.429-0.489-9.005-1.342c-15.334-5.02-16.204-22.508-16.204-22.508c-16.61,16.602-61.038,11.423-61.038,11.423
	c0-11.73,4.756-22.351,12.443-30.039c7.679-7.679,18.3-12.435,30.03-12.435h18.929C444.808,45.378,463.829,64.391,463.829,87.851z"
	/>
<path style="fill:#393A42;" d="M463.829,87.851v21.116c-5.939-2.17-12.857-0.861-17.629,3.91v-12.601
	c-3.455,0-6.429-0.489-9.005-1.342c4.523-24.471-6.503-53.557-27.213-53.557h11.374C444.808,45.378,463.829,64.391,463.829,87.851z"
	/>
<g>
	<path style="fill:#50515B;" d="M409.619,129.131c-4.323,0-7.829-3.505-7.829-7.829v-8.613c0-4.323,3.505-7.829,7.829-7.829
		s7.829,3.505,7.829,7.829v8.613C417.448,125.626,413.944,129.131,409.619,129.131z"/>
	<path style="fill:#50515B;" d="M382.005,129.131c-4.323,0-7.829-3.505-7.829-7.829v-8.613c0-4.323,3.505-7.829,7.829-7.829
		c4.323,0,7.829,3.505,7.829,7.829v8.613C389.834,125.626,386.329,129.131,382.005,129.131z"/>
</g>
<path style="fill:#FFFFFF;" d="M402.027,168.038c-4.132,0-7.588-3.236-7.811-7.411c-0.231-4.317,3.082-8.004,7.4-8.235
	c7.13-0.381,12.015-3.051,14.938-8.165c2.145-3.754,6.928-5.057,10.681-2.913c3.754,2.145,5.058,6.928,2.913,10.681
	c-5.612,9.82-15.189,15.364-27.697,16.031C402.308,168.034,402.166,168.038,402.027,168.038z"/>
<g>
	<circle style="fill:#C7F3FF;" cx="281.327" cy="215.535" r="19.832"/>
	<path style="fill:#C7F3FF;" d="M253.666,258.86c-3.37,0-6.421-2.246-7.45-5.445c-1.055-3.281,0.22-6.985,3.097-8.897
		c5.764-3.831,13.562,1.492,11.975,8.275C260.471,256.288,257.264,258.86,253.666,258.86z"/>
</g>
<path style="fill:#FCD2BE;" d="M227.615,145.408v91.196c0,41.793-33.895,75.688-75.7,75.688c-11.198,0-21.818-2.432-31.378-6.791
	v-0.013c-23.13-10.548-40.024-32.402-43.6-58.505c-3.359-1.181-6.514-3.106-9.212-5.804c-9.536-9.525-9.536-24.985,0-34.508
	c9.524-9.549,24.996-9.549,34.532,0l6.358-36.447l4.335-24.815h114.664V145.408z"/>
<path style="fill:#FAB998;" d="M120.537,305.489c-23.13-10.548-40.024-32.402-43.6-58.505c-3.359-1.181-6.514-3.106-9.212-5.804
	c-9.536-9.525-9.536-24.985,0-34.508c9.524-9.549,24.996-9.549,34.532,0l6.358-36.447l19.927,4.046
	C120.163,188.754,84.776,241.625,120.537,305.489z"/>
<path style="fill:#F9CE55;" d="M263.002,108.503c0,36.327-29.452,65.766-65.766,65.766h-68.692v6.104
	c0,14.521-11.776,26.285-26.297,26.285c-7.032-7.032-17.302-8.874-26.02-5.527v-26.862c0-36.315,29.452-65.766,65.766-65.766
	H263.002z"/>
<path style="fill:#E2A11E;" d="M195.669,108.503h-53.676c-36.315,0-65.766,29.452-65.766,65.766v26.862
	c8.718-3.348,18.988-1.505,26.02,5.527c14.521,0,26.297-11.764,26.297-26.285v-6.104h1.359
	C129.903,137.955,159.354,108.503,195.669,108.503z"/>
<g>
	<path style="fill:#50515B;" d="M163.012,226.745c-4.323,0-7.829-3.505-7.829-7.829v-12.52c0-4.323,3.505-7.829,7.829-7.829
		c4.323,0,7.829,3.505,7.829,7.829v12.52C170.841,223.24,167.336,226.745,163.012,226.745z"/>
	<path style="fill:#50515B;" d="M195.561,226.745c-4.323,0-7.829-3.505-7.829-7.829v-12.52c0-4.323,3.505-7.829,7.829-7.829
		c4.323,0,7.829,3.505,7.829,7.829v12.52C203.39,223.24,199.885,226.745,195.561,226.745z"/>
</g>
<path style="fill:#FFFFFF;" d="M166.46,283.296c-0.141,0-0.282-0.003-0.424-0.011c-16.916-0.903-29.836-8.344-37.364-21.517
	c-2.145-3.755-0.841-8.536,2.913-10.681c3.754-2.146,8.535-0.841,10.681,2.913c4.826,8.444,13.104,13.037,24.605,13.651
	c4.317,0.231,7.63,3.917,7.4,8.235C174.048,280.06,170.592,283.296,166.46,283.296z"/>
<path style="fill:#D8254F;" d="M102.679,368.273c-0.23,0.052-23.11,5.125-45.573,13.914c-1.2,0.47-2.359,0.929-3.486,1.399
	l-4.238-15.177c0.72-0.292,1.451-0.585,2.182-0.866c23.59-9.217,46.783-14.352,47.754-14.561c4.227-0.929,8.403,1.743,9.321,5.971
	C109.568,363.169,106.896,367.344,102.679,368.273z"/>
<g>
</g>
<g>
</g>
<g>
</g>
<g>
</g>
<g>
</g>
<g>
</g>
<g>
</g>
<g>
</g>
<g>
</g>
<g>
</g>
<g>
</g>
<g>
</g>
<g>
</g>
<g>
</g>
<g>
</g>
</svg>
