<?xml version="1.0" encoding="iso-8859-1"?>
<!-- Generator: Adobe Illustrator 19.0.0, SVG Export Plug-In . SVG Version: 6.00 Build 0)  -->
<svg version="1.1" id="Capa_1" xmlns="http://www.w3.org/2000/svg" xmlns:xlink="http://www.w3.org/1999/xlink" x="0px" y="0px"
	 viewBox="0 0 512 512" style="enable-background:new 0 0 512 512;" xml:space="preserve">
<g>
	<path style="fill:#50515B;" d="M345.817,508.337c-1.41,2.274-3.89,3.663-6.565,3.663h-26.745c-4.26,0-7.718-3.458-7.718-7.718
		c0-4.27,3.458-7.718,7.718-7.718h14.643c-2.737-6.329-5.125-12.595-7.183-18.79c-12.997-39.144-13.069-74.986-10.198-100.197
		c3.89-34.215,13.696-56.391,14.118-57.317c1.739-3.89,6.308-5.629,10.198-3.879c3.89,1.739,5.629,6.298,3.89,10.187
		c-0.185,0.422-9.395,21.496-12.935,53.324c-2.717,24.46-2.459,59.674,11.268,97.882c2.717,7.584,5.979,15.291,9.848,23.061
		C347.35,503.221,347.227,506.061,345.817,508.337z"/>
	<path style="fill:#50515B;" d="M421.821,508.337c-1.41,2.274-3.89,3.663-6.565,3.663h-26.745c-4.26,0-7.718-3.458-7.718-7.718
		c0-4.27,3.458-7.718,7.718-7.718h14.643c-2.737-6.329-5.125-12.595-7.183-18.79c-12.997-39.144-13.069-74.986-10.198-100.197
		c3.9-34.215,13.707-56.391,14.118-57.317c1.749-3.89,6.308-5.629,10.198-3.879c3.89,1.739,5.629,6.298,3.89,10.187
		c-0.051,0.103-2.387,5.433-5.166,14.746c-2.778,9.313-5.989,22.587-7.769,38.578c-2.717,24.46-2.459,59.674,11.278,97.882
		c2.717,7.584,5.979,15.291,9.848,23.061C423.354,503.221,423.231,506.061,421.821,508.337z"/>
</g>
<path style="fill:#B37854;" d="M352.351,225.197c-2.47,13.861-11.288,25.87-24.203,32.939c-1.667,0.906-3.375,1.729-5.114,2.439
	c-6.411,2.675-13.202,4.013-20.035,4.013c-6.823,0-13.676-1.338-20.2-4.044c-8.387-3.478-17.01-7.697-25.623-12.554
	c-16.876-7.214-28.648,3.447-28.761,3.55c-3.128,2.902-8.006,2.717-10.908-0.401c-2.902-3.128-2.717-8.016,0.412-10.908
	c0.782-0.731,19.572-17.751,45.802-6.226c0.237,0.103,0.473,0.216,0.7,0.35c8.191,4.631,16.362,8.644,24.295,11.937
	c10.455,4.332,22.124,3.715,32.013-1.698c8.798-4.816,14.787-12.873,16.434-22.104c0.741-4.198,4.754-6.987,8.953-6.246
	C350.303,216.996,353.102,220.999,352.351,225.197z"/>
<path style="fill:#D8254F;" d="M352.351,225.197c-2.47,13.861-11.288,25.87-24.203,32.939c-1.667,0.906-3.375,1.729-5.114,2.439
	l-2.305-15.981c8.798-4.816,14.787-12.873,16.434-22.104c0.741-4.198,4.754-6.987,8.953-6.246
	C350.303,216.996,353.102,220.999,352.351,225.197z"/>
<g>
	<path style="fill:#EF4A6E;" d="M153.532,504.282c0,4.26-3.447,7.718-7.718,7.718H119.07c-2.675,0-5.166-1.389-6.576-3.674
		c-1.399-2.284-1.523-5.135-0.319-7.522c3.55-7.049,6.596-14.046,9.189-20.972c30.182-80.553-0.659-150.414-0.998-151.165
		c-1.76-3.89-0.041-8.459,3.838-10.218c3.89-1.76,8.459-0.041,10.218,3.838c0.412,0.916,10.229,22.865,14.129,56.71
		c2.912,25.294,2.809,61.443-10.784,100.835c-1.904,5.516-4.075,11.103-6.534,16.732h14.581
		C150.085,496.565,153.532,500.011,153.532,504.282z"/>
	<path style="fill:#EF4A6E;" d="M77.528,504.282c0,4.26-3.458,7.718-7.718,7.718H43.065c-2.686,0-5.166-1.389-6.576-3.674
		c-1.399-2.284-1.523-5.135-0.319-7.522c3.55-7.049,6.596-14.046,9.189-20.972c30.182-80.553-0.659-150.414-0.998-151.165
		c-1.76-3.89-0.041-8.459,3.838-10.218c3.879-1.76,8.459-0.041,10.218,3.838c0.412,0.916,10.229,22.865,14.129,56.71
		c2.912,25.294,2.799,61.443-10.795,100.835c-1.893,5.516-4.065,11.103-6.524,16.732H69.81
		C74.07,496.565,77.528,500.011,77.528,504.282z"/>
</g>
<g>
	<path style="fill:#50515B;" d="M72.547,378.998c2.912,25.294,2.799,61.443-10.795,100.835H45.36
		c30.182-80.553-0.659-150.414-0.998-151.165c-1.76-3.89-0.041-8.459,3.838-10.218c3.879-1.76,8.459-0.041,10.218,3.838
		C58.83,323.203,68.647,345.152,72.547,378.998z"/>
	<path style="fill:#50515B;" d="M137.767,479.831h-16.403c30.182-80.553-0.659-150.414-0.998-151.165
		c-1.76-3.89-0.041-8.459,3.838-10.218c3.89-1.76,8.459-0.041,10.218,3.838c0.412,0.916,10.229,22.865,14.129,56.71
		C151.464,404.29,151.361,440.44,137.767,479.831z"/>
</g>
<path style="fill:#00C7A9;" d="M150.102,329.877c0,0-39.659,19.829-79.812,12.071c-15.024-2.892-30.12-9.652-43.23-22.762
	c0,0,12.564-84.165,36.109-133.352c3.128-6.534,6.452-12.451,9.971-17.473l14.643,1.132l29.595,2.295
	c0,4.116,0.525,12.173,1.605,22.68C122.648,230.4,132.712,295.106,150.102,329.877z"/>
<path style="fill:#04AF92;" d="M70.29,341.947c-15.024-2.892-30.12-9.652-43.23-22.762c0,0,16.125-108.028,46.08-150.825
	l14.643,1.132l4.24,4.188C81.064,196.185,55.4,283.272,70.29,341.947z"/>
<path style="fill:#FCD2BE;" d="M164.653,31.54v77.939c0,35.718-28.967,64.685-64.695,64.685c-9.57,0-18.646-2.079-26.817-5.804
	v-0.01c-19.768-9.014-34.205-27.691-37.261-50.001c-2.871-1.008-5.567-2.655-7.872-4.96c-8.15-8.14-8.15-21.352,0-29.492
	c8.14-8.16,21.363-8.16,29.513,0l5.433-31.149l3.705-21.208L164.653,31.54L164.653,31.54z"/>
<path style="fill:#FAB998;" d="M73.141,168.35c-19.768-9.014-34.205-27.691-37.261-50.001c-2.871-1.008-5.567-2.655-7.872-4.96
	c-8.15-8.14-8.15-21.352,0-29.492c8.14-8.16,21.363-8.16,29.513,0l5.433-31.149l17.03,3.458
	C72.822,68.585,42.579,113.77,73.141,168.35z"/>
<path style="fill:#F9CE55;" d="M194.896,0c0,31.046-25.17,56.206-56.206,56.206H79.984v5.217c0,12.41-10.064,22.464-22.474,22.464
	c-6.01-6.01-14.787-7.584-22.237-4.723V56.206C35.273,25.17,60.443,0,91.478,0H194.896z"/>
<path style="fill:#E2A11E;" d="M137.351,0H91.478C60.443,0,35.273,25.17,35.273,56.206v22.958c7.45-2.861,16.228-1.286,22.237,4.723
	c12.41,0,22.474-10.054,22.474-22.464v-5.217h1.162C81.146,25.17,106.316,0,137.351,0z"/>
<g>
	<path style="fill:#393A42;" d="M109.442,102.08c-4.262,0-7.718-3.455-7.718-7.718v-10.7c0-4.262,3.455-7.718,7.718-7.718
		c4.262,0,7.718,3.455,7.718,7.718v10.7C117.16,98.624,113.704,102.08,109.442,102.08z"/>
	<path style="fill:#393A42;" d="M137.26,102.08c-4.262,0-7.718-3.455-7.718-7.718v-10.7c0-4.262,3.456-7.718,7.718-7.718
		c4.262,0,7.718,3.455,7.718,7.718v10.7C144.978,98.624,141.522,102.08,137.26,102.08z"/>
</g>
<path style="fill:#FFFFFF;" d="M112.389,150.409c-0.138,0-0.278-0.004-0.418-0.011c-14.823-0.791-26.155-7.329-32.77-18.905
	c-2.115-3.7-0.829-8.415,2.872-10.53c3.7-2.115,8.414-0.829,10.53,2.872c3.995,6.991,10.599,10.638,20.191,11.151
	c4.256,0.227,7.523,3.862,7.296,8.118C119.87,147.219,116.463,150.409,112.389,150.409z"/>
<path style="fill:#EF4A6E;" d="M308.225,329.877c0,0,39.659,19.829,79.812,12.071c15.024-2.892,30.12-9.652,43.23-22.762
	c0,0-16.125-108.028-46.08-150.825l-14.643,1.132l-29.595,2.295C340.949,189.98,330.699,284.939,308.225,329.877z"/>
<path style="fill:#D8254F;" d="M388.037,341.947c15.024-2.892,30.12-9.652,43.23-22.762c0,0-16.125-108.028-46.08-150.825
	l-14.643,1.132l-4.24,4.188C377.263,196.185,402.927,283.272,388.037,341.947z"/>
<path style="fill:#B37854;" d="M489.861,368.573c-0.885,3.488-4.024,5.814-7.471,5.814c-0.628,0-1.276-0.082-1.914-0.247
	c-14.797-3.777-24.913-16.382-24.614-30.655c0.659-30.892-7.594-59.735-24.553-85.852c-1.605-2.49-3.303-4.95-5.073-7.388
	c-15.353-21.116-31.19-32.322-31.355-32.425c-3.488-2.439-4.343-7.255-1.914-10.743c2.439-3.488,7.234-4.363,10.733-1.935
	c0.72,0.504,17.782,12.482,34.648,35.522c1.399,1.914,2.83,3.941,4.26,6.082c14.468,21.61,29.585,54.559,28.689,97.069
	c-0.154,7.059,5.197,13.377,12.997,15.374C488.43,360.237,490.921,364.446,489.861,368.573z"/>
<path style="fill:#FCD2BE;" d="M240.619,251.345c-3.015,3.015-7.903,3.015-10.918,0c-0.391-0.37-10.887-10.229-25.664-3.458
	c-27.588,16.742-54.271,25.355-77.62,25.355c-8.006,0-15.621-1.008-22.752-3.056c-1.327-0.381-2.634-0.803-3.931-1.255
	c-17.792-6.246-30.984-18.996-37.138-35.913c-1.451-4.013,0.617-8.438,4.62-9.899c4.003-1.451,8.438,0.617,9.889,4.62
	c4.548,12.492,14.396,21.949,27.732,26.621c0.34,0.123,0.7,0.237,1.06,0.36c14.406,4.713,44.516,7.759,90.472-20.231
	c0.226-0.144,0.463-0.278,0.71-0.391c24.954-11.824,42.787,5.588,43.538,6.339C243.634,243.442,243.634,248.33,240.619,251.345z"/>
<path style="fill:#04AF92;" d="M105.898,254.72l-2.233,15.466c-1.327-0.381-2.634-0.803-3.931-1.255
	c-17.792-6.246-30.984-18.996-37.138-35.913c-1.451-4.013,0.617-8.438,4.62-9.899c4.003-1.451,8.438,0.617,9.889,4.62
	c4.548,12.492,14.396,21.949,27.732,26.621C105.178,254.485,105.538,254.597,105.898,254.72z"/>
<path style="fill:#D8254F;" d="M442.608,246.745l-11.299,10.887c-1.605-2.49-3.303-4.95-5.073-7.388
	c-15.353-21.116-31.19-32.322-31.355-32.425c-3.488-2.439-4.343-7.255-1.914-10.743c2.439-3.488,7.234-4.363,10.733-1.935
	c0.72,0.504,17.782,12.482,34.647,35.522C439.747,242.578,441.177,244.605,442.608,246.745z"/>
<path style="fill:#B37854;" d="M287.492,58.957v56.696c0,35.718,28.967,64.685,64.695,64.685c9.57,0,18.646-2.079,26.817-5.804
	v-0.01c19.768-9.014,34.205-27.691,37.261-50.001c2.871-1.008,5.567-2.655,7.872-4.96c8.15-8.14,8.15-21.352,0-29.492
	c-8.14-8.16-21.363-8.16-29.513,0l-5.433-31.149l-3.705-21.208L287.492,58.957z"/>
<path style="fill:#946032;" d="M379.004,174.524c19.768-9.014,34.205-27.691,37.261-50.001c2.871-1.008,5.567-2.655,7.872-4.96
	c8.15-8.14,8.15-21.352,0-29.492c-8.14-8.16-21.363-8.16-29.513,0l12.903-31.113l-35.367,3.423
	C379.323,74.759,409.566,119.944,379.004,174.524z"/>
<path style="fill:#50515B;" d="M416.529,58.984v26.23c-7.378-2.696-15.971-1.07-21.898,4.857V74.42
	c-4.291,0-7.985-0.607-11.186-1.667c-19.047-6.236-20.128-27.959-20.128-27.959c-20.632,20.622-75.819,14.19-75.819,14.19
	c0-14.571,5.907-27.763,15.456-37.313c9.539-9.539,22.731-15.446,37.302-15.446h23.513C392.902,6.226,416.529,29.842,416.529,58.984
	z"/>
<g>
	<path style="fill:#393A42;" d="M416.529,58.984v26.23c-7.378-2.696-15.971-1.07-21.898,4.857V74.42
		c-4.291,0-7.985-0.607-11.186-1.667c5.618-30.398-8.078-66.527-33.804-66.527h14.129C392.902,6.226,416.529,29.842,416.529,58.984z
		"/>
	<path style="fill:#393A42;" d="M342.708,108.254c-4.262,0-7.718-3.455-7.718-7.718v-10.7c0-4.262,3.456-7.718,7.718-7.718
		c4.262,0,7.718,3.455,7.718,7.718v10.7C350.426,104.799,346.97,108.254,342.708,108.254z"/>
	<path style="fill:#393A42;" d="M314.89,108.254c-4.262,0-7.718-3.455-7.718-7.718v-10.7c0-4.262,3.456-7.718,7.718-7.718
		s7.718,3.455,7.718,7.718v10.7C322.608,104.799,319.153,108.254,314.89,108.254z"/>
</g>
<path style="fill:#FFFFFF;" d="M339.761,156.584c-4.074,0-7.481-3.19-7.7-7.307c-0.227-4.256,3.04-7.891,7.296-8.118
	c9.591-0.511,16.195-4.159,20.191-11.151c2.115-3.7,6.829-4.986,10.53-2.872c3.7,2.115,4.987,6.829,2.872,10.53
	c-6.616,11.578-17.946,18.115-32.77,18.905C340.039,156.58,339.899,156.584,339.761,156.584z"/>
<g>
	<path style="fill:#00C7A9;" d="M346.156,500.834c1.194,2.387,1.07,5.227-0.34,7.502c-1.41,2.274-3.89,3.663-6.565,3.663h-26.745
		c-4.26,0-7.718-3.458-7.718-7.718c0-4.27,3.458-7.718,7.718-7.718h14.643c-2.737-6.329-5.125-12.595-7.183-18.79h16.341
		C339.025,485.357,342.287,493.065,346.156,500.834z"/>
	<path style="fill:#00C7A9;" d="M421.821,508.337c-1.41,2.274-3.89,3.663-6.565,3.663h-26.745c-4.26,0-7.718-3.458-7.718-7.718
		c0-4.27,3.458-7.718,7.718-7.718h14.643c-2.737-6.329-5.125-12.595-7.183-18.79h16.351c2.717,7.584,5.979,15.291,9.848,23.061
		C423.354,503.221,423.231,506.061,421.821,508.337z"/>
</g>
<g>
</g>
<g>
</g>
<g>
</g>
<g>
</g>
<g>
</g>
<g>
</g>
<g>
</g>
<g>
</g>
<g>
</g>
<g>
</g>
<g>
</g>
<g>
</g>
<g>
</g>
<g>
</g>
<g>
</g>
</svg>
